<svg width="282" height="285" viewBox="0 0 282 285" fill="none" xmlns="http://www.w3.org/2000/svg">
<path d="M252.19 0.828583H29.8103C13.3465 0.828583 0 14.2387 0 30.7809V254.219C0 270.761 13.3465 284.171 29.8103 284.171H252.19C268.653 284.171 282 270.761 282 254.219V30.7809C282 14.2387 268.653 0.828583 252.19 0.828583Z" fill="#38D55B"/>
<path d="M136.18 215.668C117.83 215.668 102.899 202.359 102.899 185.998V70.37C102.899 66.7152 106.301 63.7503 110.496 63.7503C114.692 63.7503 118.094 66.7117 118.094 70.37V185.998C118.094 195.06 126.208 202.432 136.18 202.432C146.153 202.432 154.267 195.06 154.267 185.998V116.906C154.267 113.252 157.668 110.287 161.864 110.287C166.06 110.287 169.462 113.248 169.462 116.906V185.998C169.462 202.359 154.53 215.668 136.18 215.668Z" fill="white"/>
<path d="M135.778 239.398C120.112 239.398 105.385 233.433 94.31 222.598C83.2347 211.766 77.1318 197.36 77.1318 182.04C77.1318 178.386 80.1625 175.421 83.897 175.421C87.6315 175.421 90.6621 178.382 90.6621 182.04C90.6621 206.369 110.899 226.162 135.775 226.162C160.651 226.162 180.887 206.369 180.887 182.04V127.139C180.887 123.484 183.918 120.519 187.652 120.519C191.387 120.519 194.417 123.481 194.417 127.139V182.04C194.417 197.36 188.318 211.766 177.239 222.598C166.164 233.43 151.434 239.398 135.771 239.398H135.778Z" fill="white"/>
<path d="M134.679 192.175C131.041 192.175 128.09 189.214 128.09 185.556V96.9636C128.09 93.3089 131.038 90.344 134.679 90.344C138.32 90.344 141.267 93.3054 141.267 96.9636V185.556C141.267 189.211 138.32 192.175 134.679 192.175Z" fill="white"/>
<path d="M91.2447 41.3236C93.2975 40.1634 95.2843 40.3898 97.403 40.8915C120.001 46.2326 142.661 51.2984 165.197 56.8833C176.261 59.6252 186.851 58.9388 197.302 54.751C200.125 53.6187 202.767 52.03 205.51 50.6886C213.371 46.8527 223.895 49.856 228.659 57.2317C231.673 61.8968 232.602 66.8406 230.279 71.997C227.584 77.9721 222.556 80.5503 216.249 80.8883C213.215 81.0485 210.375 80.2193 207.57 79.0731C202.043 76.8154 196.46 74.6971 190.898 72.5266C182.021 69.0635 173.134 65.6177 164.267 62.1267C163.418 61.7923 162.679 61.8062 161.847 62.0989C160.009 62.7434 158.158 63.3636 156.289 63.9141C155.744 64.0743 155.058 64.1301 154.537 63.9454C133.625 56.514 112.723 49.0477 91.8203 41.5883C91.6469 41.5256 91.4805 41.4385 91.2412 41.334L91.2447 41.3236ZM224.88 62.1267C222.425 56.6429 215.261 53.4027 209.55 55.19C203.814 56.9878 201.425 62.2766 203.863 67.7883C206.148 72.9586 212.459 76.0455 218.312 74.8574C224.477 73.6066 227.446 67.8545 224.883 62.1267H224.88ZM156.247 57.4233C155.151 57.9947 154.735 59.3744 155.328 60.4788C155.897 61.5414 157.225 61.9665 158.272 61.423C159.378 60.8481 159.798 59.4754 159.205 58.3744C158.636 57.3257 157.28 56.8867 156.25 57.4233H156.247Z" fill="black"/>
<path d="M107.171 48.0269C107.94 48.3091 108.71 48.5878 109.48 48.87C124.37 54.3748 139.259 59.89 154.163 65.3599C154.745 65.5725 155.498 65.5167 156.118 65.3739C157.457 65.0638 158.778 64.6596 160.071 64.1998C160.727 63.9663 161.094 64.0952 161.326 64.7049C161.614 65.4645 162.204 65.7606 162.949 65.9801C176.837 70.1366 190.71 74.3313 204.601 78.4808C208.596 79.6758 212.264 81.4004 214.976 84.6859C218.679 89.1698 220.087 94.2287 217.979 99.8205C215.853 105.458 211.46 108.464 205.69 109.506C197.628 110.959 189.396 106.876 185.807 99.6812C184.937 97.9357 184.358 96.0369 183.453 94.3123C178.9 85.637 172.898 78.223 164.361 73.2304C161.406 71.5023 158.164 70.255 155.009 68.8858C139.211 62.0431 123.399 55.2318 107.594 48.4066C107.431 48.3369 107.275 48.2498 107.119 48.1697C107.136 48.1209 107.157 48.0687 107.174 48.0199L107.171 48.0269ZM212.649 90.1558C212.313 89.6472 212.018 89.1036 211.633 88.6368C207.715 83.8497 201.799 82.0485 195.991 84.1075C190.488 86.0586 187.461 91.9257 190.478 97.7197C193.571 103.656 201.754 106.433 207.812 103.646C213.364 101.092 215.441 95.2599 212.649 90.1558Z" fill="black"/>
</svg>
